# xmcd CD database file
#
# Track frame offsets:
#	182
#	23780
#	38812
#	61857
#	80835
#	98770
#	118422
#	139967
#	167170
#	186697
#	201665
#	224185
#	246020
#	262245
#
# Disc length: 3673 seconds
#
# Revision: 1
# Processed by: cddbd v1.5.2PL0 Copyright (c) Steve Scherf et al.
# Submitted via: CDex 1.51
#
DISCID=e80e570e
DTITLE=Papa George Lightfoot - Goin'  Back To The Natchez Trace
DYEAR=1994
DGENRE=Blues
TTITLE0=My Woman Is Tired Of Me Lyin'
TTITLE1=New Mean Old Train
TTITLE2=Love My Baby
TTITLE3=Goin' Down That Muddy Road
TTITLE4=Ah Come On Honey
TTITLE5=I Heard Somebody Crying
TTITLE6=Take It Witcha
TTITLE7=Nighttime
TTITLE8=Early In The Morning
TTITLE9=Walkin'
TTITLE10=Goin' Back To Natchez
TTITLE11=Baby Please Don't Go
TTITLE12=Train Tune
TTITLE13=Lightfoot, Papa George-Talkin' About It...
EXTD=YEAR: 1994
EXTT0=
EXTT1=
EXTT2=
EXTT3=
EXTT4=
EXTT5=
EXTT6=
EXTT7=
EXTT8=
EXTT9=
EXTT10=
EXTT11=
EXTT12=
EXTT13=
PLAYORDER=
